<?xml version="1.0" encoding="UTF-8" standalone="no"?>
<!-- Uploaded to: SVG Repo, www.svgrepo.com, Generator: SVG Repo Mixer Tools -->

<svg
   width="64"
   height="64"
   viewBox="0 0 1.92 1.92"
   fill="none"
   version="1.1"
   id="svg2"
   sodipodi:docname="home-svgrepo-com.svg"
   inkscape:version="1.3.2 (091e20e, 2023-11-25, custom)"
   xmlns:inkscape="http://www.inkscape.org/namespaces/inkscape"
   xmlns:sodipodi="http://sodipodi.sourceforge.net/DTD/sodipodi-0.dtd"
   xmlns="http://www.w3.org/2000/svg"
   xmlns:svg="http://www.w3.org/2000/svg">
  <defs
     id="defs2" />
  <sodipodi:namedview
     id="namedview2"
     pagecolor="#505050"
     bordercolor="#ffffff"
     borderopacity="1"
     inkscape:showpageshadow="0"
     inkscape:pageopacity="0"
     inkscape:pagecheckerboard="1"
     inkscape:deskcolor="#505050"
     inkscape:zoom="0.479375"
     inkscape:cx="157.49674"
     inkscape:cy="228.42242"
     inkscape:window-width="1920"
     inkscape:window-height="1009"
     inkscape:window-x="-8"
     inkscape:window-y="-8"
     inkscape:window-maximized="1"
     inkscape:current-layer="svg2" />
  <path
     fill-rule="evenodd"
     clip-rule="evenodd"
     d="M 0.96,0 C 0.89676502,0 0.83930792,0.0181123 0.77697937,0.04842329 0.71672709,0.07772428 0.64712218,0.12092339 0.560181,0.17488253 L 0.3756306,0.28941991 C 0.29336619,0.34047494 0.22749233,0.38135665 0.17672039,0.42023978 0.12414365,0.46050441 0.08376114,0.50151204 0.05459143,0.55480231 0.02548244,0.60798095 0.01237464,0.66456469 0.00608955,0.73144856 -8.7178263e-7,0.79626419 -8.7178263e-7,0.87552893 2.1240631e-8,0.97493135 V 1.1189492 C -8.7178263e-7,1.288963 -1.7648059e-6,1.4231754 0.01363649,1.5281057 0.02762748,1.6357507 0.05702491,1.7226508 0.12344798,1.7913511 0.19017646,1.8603818 0.27509226,1.8912179 0.38021449,1.9058367 0.48209773,1.92 0.61221747,1.92 0.77620244,1.92 H 1.1437931 c 0.1639859,0 0.2941083,0 0.3959933,-0.014163 C 1.6449042,1.891218 1.7298218,1.860382 1.7965485,1.7913514 1.8629715,1.7226514 1.8923695,1.635751 1.9063635,1.528106 1.92,1.4231754 1.92,1.2889719 1.92,1.1189492 V 0.97493135 c 0,-0.0994024 0,-0.17866716 -0.00609,-0.24348279 C 1.90762,0.66456466 1.894513,0.60798095 1.86541,0.55480231 1.8362433,0.50151204 1.7958608,0.46050441 1.7432796,0.42023978 1.6925113,0.38135665 1.6266329,0.34047583 1.5443676,0.2894208 L 1.3598154,0.17488164 C 1.2728796,0.12092339 1.2032685,0.07772339 1.1430162,0.04842329 1.0806921,0.0181123 1.023235,0 0.96,0 Z M 0.62775339,0.29060048 C 0.71846312,0.2343034 0.78224374,0.1948157 0.83555723,0.16888856 0.88750439,0.14362761 0.92429693,0.13395349 0.96,0.13395349 c 0.0357031,0 0.0724956,0.009674 0.1244428,0.0349342 0.053314,0.025928 0.1170932,0.0654157 0.2078065,0.12171281 L 1.470854,0.401447 c 0.085802,0.0532528 0.146045,0.0907294 0.1909819,0.12514202 0.043722,0.033483 0.06887,0.0611149 0.08607,0.0925306 0.017262,0.0315273 0.027335,0.0683877 0.03264,0.12486162 0.00543,0.0578286 0.0055,0.13080647 0.0055,0.23422749 V 1.1140465 c 0,0.176006 -1.339e-4,0.3015025 -0.01252,0.396797 -0.012163,0.093589 -0.035078,0.1478936 -0.073282,0.1874099 -0.037891,0.039195 -0.08949,0.062467 -0.1789082,0.074907 -0.091588,0.012735 -0.2123878,0.012886 -0.3827319,0.012886 H 0.78139537 c -0.17034687,0 -0.29114077,-1.518e-4 -0.38273012,-0.012886 C 0.30924147,1.7607204 0.25764973,1.7374482 0.21975429,1.6982534 0.18155254,1.6587371 0.15863846,1.6044324 0.1464728,1.5108435 0.13408657,1.415549 0.13395351,1.2900525 0.13395351,1.1140465 V 0.97820874 c 0,-0.10342102 6.787e-5,-0.17639888 0.005502,-0.23422749 0.005306,-0.0564739 0.0153814,-0.0933343 0.0326382,-0.12486162 0.0171961,-0.0314157 0.0423507,-0.0590476 0.0860723,-0.0925306 0.0449351,-0.0344126 0.1051776,-0.0718893 0.19098284,-0.12514202 z"
     fill="#1C274C"
     id="path2"
     style="fill:#cdd6f4;fill-opacity:1;stroke-width:0.0893023" />
</svg>
