<?xml version="1.0" encoding="UTF-8" standalone="no"?>
<!-- Uploaded to: SVG Repo, www.svgrepo.com, Generator: SVG Repo Mixer Tools -->

<svg
   width="52.363411"
   height="64.000015"
   viewBox="0 0 1.5709023 1.9200005"
   fill="none"
   version="1.1"
   id="svg1"
   sodipodi:docname="refresh-cw-alt-2-svgrepo-com.svg"
   inkscape:version="1.3.2 (091e20e, 2023-11-25, custom)"
   xmlns:inkscape="http://www.inkscape.org/namespaces/inkscape"
   xmlns:sodipodi="http://sodipodi.sourceforge.net/DTD/sodipodi-0.dtd"
   xmlns="http://www.w3.org/2000/svg"
   xmlns:svg="http://www.w3.org/2000/svg">
  <defs
     id="defs1" />
  <sodipodi:namedview
     id="namedview1"
     pagecolor="#505050"
     bordercolor="#ffffff"
     borderopacity="1"
     inkscape:showpageshadow="0"
     inkscape:pageopacity="0"
     inkscape:pagecheckerboard="1"
     inkscape:deskcolor="#505050"
     inkscape:zoom="7.67"
     inkscape:cx="24.054759"
     inkscape:cy="42.43807"
     inkscape:window-width="1920"
     inkscape:window-height="1009"
     inkscape:window-x="-8"
     inkscape:window-y="-8"
     inkscape:window-maximized="1"
     inkscape:current-layer="svg1" />
  <path
     d="m 0.69817882,0.0872725 0.17454467,0.17414758 -0.005167,0.005174 m 0.005167,1.21704412 -0.17454467,0.1667512 0.002592,0.0027 M 0.86755697,0.26659446 0.69817882,0.43636183 M 0.86755697,0.26659446 c -0.0269235,-0.003155 -0.054327,-0.004777 -0.0821058,-0.004777 -0.38559361,0 -0.69817867,0.31258506 -0.69817867,0.69817866 0,0.22048488 0.10220201,0.41710068 0.261817,0.54505068 M 1.2218129,0.41494782 c 0.1596123,0.12795172 0.261817,0.32456494 0.261817,0.54504801 0,0.38559537 -0.3125834,0.69817867 -0.69817874,0.69817867 -0.0286602,0 -0.0569278,-0.00173 -0.0846803,-0.00509 M 0.87272349,1.8327279 0.70077081,1.6530865"
     stroke="#000000"
     stroke-width="0.174545"
     stroke-linecap="round"
     stroke-linejoin="round"
     id="path1"
     style="fill:none;fill-opacity:1;stroke:#cdd6f4;stroke-opacity:1"
     inkscape:export-filename="..\web-dev\inkflowio\src\assets\refresh.svg"
     inkscape:export-xdpi="96"
     inkscape:export-ydpi="96" />
</svg>
