<?xml version="1.0" encoding="UTF-8" standalone="no"?>
<!-- Uploaded to: SVG Repo, www.svgrepo.com, Generator: SVG Repo Mixer Tools -->

<svg
   width="57.59272"
   height="64"
   viewBox="0 0 1.7277816 1.92"
   fill="none"
   version="1.1"
   id="svg1"
   sodipodi:docname="user-pen-alt-1-svgrepo-com.svg"
   xmlns:inkscape="http://www.inkscape.org/namespaces/inkscape"
   xmlns:sodipodi="http://sodipodi.sourceforge.net/DTD/sodipodi-0.dtd"
   xmlns="http://www.w3.org/2000/svg"
   xmlns:svg="http://www.w3.org/2000/svg">
  <defs
     id="defs1" />
  <sodipodi:namedview
     id="namedview1"
     pagecolor="#505050"
     bordercolor="#ffffff"
     borderopacity="1"
     inkscape:showpageshadow="0"
     inkscape:pageopacity="0"
     inkscape:pagecheckerboard="1"
     inkscape:deskcolor="#505050" />
  <path
     d="m 0.096,1.824 c 0,-0.371136 0.30086496,-0.672 0.672,-0.672 0.032592,0 0.0646464,0.00232 0.096,0.00681 M 1.152,0.48 c 0,0.21207744 -0.1719264,0.384 -0.384,0.384 -0.21207744,0 -0.384,-0.17192256 -0.384,-0.384 0,-0.21207744 0.17192256,-0.384 0.384,-0.384 0.2120736,0 0.384,0.17192256 0.384,0.384 z m -0.2313792,1.344 0.1944,-0.03888 c 0.016954,-0.00339 0.02543,-0.00509 0.033331,-0.00819 0.00702,-0.00275 0.01368,-0.00632 0.019862,-0.010627 0.00696,-0.00486 0.013075,-0.010963 0.025296,-0.023194 L 1.5926208,1.344 c 0.053021,-0.053021 0.053021,-0.1389792 0,-0.192 -0.053011,-0.053021 -0.1389792,-0.053021 -0.192,0 L 1.0015104,1.5511104 c -0.0122208,0.01223 -0.018336,0.018336 -0.0231936,0.025306 -0.00431,0.00617 -0.007872,0.012845 -0.0106272,0.019862 -0.003101,0.0079 -0.00479,0.016378 -0.008189,0.033322 z"
     stroke="#000000"
     stroke-width="0.192"
     stroke-linecap="round"
     stroke-linejoin="round"
     id="path1"
     style="fill:none;fill-opacity:1;stroke:#cdd6f4;stroke-opacity:1" />
</svg>
