<?xml version="1.0" encoding="UTF-8" standalone="no"?>
<!-- Uploaded to: SVG Repo, www.svgrepo.com, Generator: SVG Repo Mixer Tools -->

<svg
   fill="#000000"
   width="63.999996"
   height="40"
   viewBox="0 0 4.1599998 2.5999999"
   enable-background="new 0 0 52 52"
   xml:space="preserve"
   version="1.1"
   id="svg16"
   sodipodi:docname="type-svgrepo-com.svg"
   inkscape:export-filename="..\web-dev\inkflowio\src\assets\type.svg"
   inkscape:export-xdpi="96"
   inkscape:export-ydpi="96"
   xmlns:inkscape="http://www.inkscape.org/namespaces/inkscape"
   xmlns:sodipodi="http://sodipodi.sourceforge.net/DTD/sodipodi-0.dtd"
   xmlns="http://www.w3.org/2000/svg"
   xmlns:svg="http://www.w3.org/2000/svg"><defs
   id="defs16" /><sodipodi:namedview
   id="namedview16"
   pagecolor="#505050"
   bordercolor="#ffffff"
   borderopacity="1"
   inkscape:showpageshadow="0"
   inkscape:pageopacity="0"
   inkscape:pagecheckerboard="1"
   inkscape:deskcolor="#505050" />
<g
   id="g16"
   style="fill:#cdd6f4;fill-opacity:1;stroke:none;stroke-opacity:1"
   transform="matrix(0.08666666,0,0,0.08666666,-0.17333333,-0.95333332)">
	<path
   d="M 48,11 H 4 c -1.1,0 -2,0.9 -2,2 v 26 c 0,1.1 0.9,2 2,2 h 44 c 1.1,0 2,-0.9 2,-2 V 13 c 0,-1.1 -0.9,-2 -2,-2 z M 46,37 H 6 V 15 h 40 z"
   id="path1"
   style="fill:#cdd6f4;fill-opacity:1;stroke:none;stroke-opacity:1" />
	<path
   d="m 11.2,21.8 h 1 c 0.8,0 1.5,-0.7 1.5,-1.5 v -1 c 0,-0.8 -0.7,-1.5 -1.5,-1.5 h -1 c -0.8,0 -1.5,0.7 -1.5,1.5 v 1 c 0,0.8 0.7,1.5 1.5,1.5 z"
   id="path2"
   style="fill:#cdd6f4;fill-opacity:1;stroke:none;stroke-opacity:1" />
	<path
   d="m 16.9,21.8 h 1 c 0.8,0 1.5,-0.7 1.5,-1.5 v -1 c 0,-0.8 -0.7,-1.5 -1.5,-1.5 h -1 c -0.8,0 -1.5,0.7 -1.5,1.5 v 1 c 0,0.8 0.7,1.5 1.5,1.5 z"
   id="path3"
   style="fill:#cdd6f4;fill-opacity:1;stroke:none;stroke-opacity:1" />
	<path
   d="m 28.4,21.8 h 1 c 0.8,0 1.5,-0.7 1.5,-1.5 v -1 c 0,-0.8 -0.7,-1.5 -1.5,-1.5 h -1 c -0.8,0 -1.5,0.7 -1.5,1.5 v 1 c 0,0.8 0.7,1.5 1.5,1.5 z"
   id="path4"
   style="fill:#cdd6f4;fill-opacity:1;stroke:none;stroke-opacity:1" />
	<path
   d="m 22.6,21.8 h 1 c 0.8,0 1.5,-0.7 1.5,-1.5 v -1 c 0,-0.8 -0.7,-1.5 -1.5,-1.5 h -1 c -0.8,0 -1.5,0.7 -1.5,1.5 v 1 c 0,0.8 0.7,1.5 1.5,1.5 z"
   id="path5"
   style="fill:#cdd6f4;fill-opacity:1;stroke:none;stroke-opacity:1" />
	<path
   d="m 39.9,21.8 h 1 c 0.8,0 1.5,-0.7 1.5,-1.5 v -1 c 0,-0.8 -0.7,-1.5 -1.5,-1.5 h -1 c -0.8,0 -1.5,0.7 -1.5,1.5 v 1 c 0,0.8 0.7,1.5 1.5,1.5 z"
   id="path6"
   style="fill:#cdd6f4;fill-opacity:1;stroke:none;stroke-opacity:1" />
	<path
   d="m 34.1,21.8 h 1 c 0.8,0 1.5,-0.7 1.5,-1.5 v -1 c 0,-0.8 -0.7,-1.5 -1.5,-1.5 h -1 c -0.8,0 -1.5,0.7 -1.5,1.5 v 1 c 0,0.8 0.7,1.5 1.5,1.5 z"
   id="path7"
   style="fill:#cdd6f4;fill-opacity:1;stroke:none;stroke-opacity:1" />
	<path
   d="m 11.2,27.8 h 1 c 0.8,0 1.5,-0.7 1.5,-1.5 v -1 c 0,-0.8 -0.7,-1.5 -1.5,-1.5 h -1 c -0.8,0 -1.5,0.7 -1.5,1.5 v 1 c 0,0.8 0.7,1.5 1.5,1.5 z"
   id="path8"
   style="fill:#cdd6f4;fill-opacity:1;stroke:none;stroke-opacity:1" />
	<path
   d="m 16.9,27.8 h 1 c 0.8,0 1.5,-0.7 1.5,-1.5 v -1 c 0,-0.8 -0.7,-1.5 -1.5,-1.5 h -1 c -0.8,0 -1.5,0.7 -1.5,1.5 v 1 c 0,0.8 0.7,1.5 1.5,1.5 z"
   id="path9"
   style="fill:#cdd6f4;fill-opacity:1;stroke:none;stroke-opacity:1" />
	<path
   d="m 28.4,27.8 h 1 c 0.8,0 1.5,-0.7 1.5,-1.5 v -1 c 0,-0.8 -0.7,-1.5 -1.5,-1.5 h -1 c -0.8,0 -1.5,0.7 -1.5,1.5 v 1 c 0,0.8 0.7,1.5 1.5,1.5 z"
   id="path10"
   style="fill:#cdd6f4;fill-opacity:1;stroke:none;stroke-opacity:1" />
	<path
   d="m 22.6,27.8 h 1 c 0.8,0 1.5,-0.7 1.5,-1.5 v -1 c 0,-0.8 -0.7,-1.5 -1.5,-1.5 h -1 c -0.8,0 -1.5,0.7 -1.5,1.5 v 1 c 0,0.8 0.7,1.5 1.5,1.5 z"
   id="path11"
   style="fill:#cdd6f4;fill-opacity:1;stroke:none;stroke-opacity:1" />
	<path
   d="m 39.9,27.8 h 1 c 0.8,0 1.5,-0.7 1.5,-1.5 v -1 c 0,-0.8 -0.7,-1.5 -1.5,-1.5 h -1 c -0.8,0 -1.5,0.7 -1.5,1.5 v 1 c 0,0.8 0.7,1.5 1.5,1.5 z"
   id="path12"
   style="fill:#cdd6f4;fill-opacity:1;stroke:none;stroke-opacity:1" />
	<path
   d="m 34.1,27.8 h 1 c 0.8,0 1.5,-0.7 1.5,-1.5 v -1 c 0,-0.8 -0.7,-1.5 -1.5,-1.5 h -1 c -0.8,0 -1.5,0.7 -1.5,1.5 v 1 c 0,0.8 0.7,1.5 1.5,1.5 z"
   id="path13"
   style="fill:#cdd6f4;fill-opacity:1;stroke:none;stroke-opacity:1" />
	<path
   d="m 11.2,33.8 h 1 c 0.8,0 1.5,-0.7 1.5,-1.5 v -1 c 0,-0.8 -0.7,-1.5 -1.5,-1.5 h -1 c -0.8,0 -1.5,0.7 -1.5,1.5 v 1 c 0,0.8 0.7,1.5 1.5,1.5 z"
   id="path14"
   style="fill:#cdd6f4;fill-opacity:1;stroke:none;stroke-opacity:1" />
	<path
   d="m 16.9,33.8 h 18.2 c 0.8,0 1.5,-0.7 1.5,-1.5 v -1 c 0,-0.8 -0.7,-1.5 -1.5,-1.5 H 16.9 c -0.8,0 -1.5,0.7 -1.5,1.5 v 1 c 0,0.8 0.7,1.5 1.5,1.5 z"
   id="path15"
   style="fill:#cdd6f4;fill-opacity:1;stroke:none;stroke-opacity:1" />
	<path
   d="m 39.9,33.8 h 1 c 0.8,0 1.5,-0.7 1.5,-1.5 v -1 c 0,-0.8 -0.7,-1.5 -1.5,-1.5 h -1 c -0.8,0 -1.5,0.7 -1.5,1.5 v 1 c 0,0.8 0.7,1.5 1.5,1.5 z"
   id="path16"
   style="fill:#cdd6f4;fill-opacity:1;stroke:none;stroke-opacity:1" />
</g>
</svg>
